<?xml version="1.0" encoding="UTF-8" standalone="no"?>
<!DOCTYPE svg PUBLIC "-//W3C//DTD SVG 1.1//EN" "http://www.w3.org/Graphics/SVG/1.1/DTD/svg11.dtd">
<svg width="100%" height="100%" viewBox="0 0 500 500" version="1.1" xmlns="http://www.w3.org/2000/svg" xmlns:xlink="http://www.w3.org/1999/xlink" xml:space="preserve" xmlns:serif="http://www.serif.com/" style="fill-rule:evenodd;clip-rule:evenodd;stroke-linejoin:round;stroke-miterlimit:2;">
    <g transform="matrix(3.94817,0,0,3.94817,-1295.708644,-711.204157)">
        <path d="M386.121,253.654L371.169,268.934C370.423,269.717 369.491,270.109 368.372,270.109C367.887,270.109 367.421,270.015 366.974,269.829C366.526,269.643 366.125,269.382 365.771,269.046C365.417,268.71 365.137,268.328 364.932,267.899C364.727,267.471 364.625,267.014 364.625,266.529C364.625,266.007 364.736,265.522 364.96,265.075C365.184,264.627 365.482,264.199 365.855,263.788L380.871,248.404L386.121,253.654Z" style="fill:white;"/>
    </g>
    <g transform="matrix(3.94817,0,0,3.94817,-1295.708644,-711.204157)">
        <path d="M386.361,242.78L386.382,242.758L388.391,244.81L386.361,242.78Z" style="fill:white;"/>
    </g>
    <g transform="matrix(3.94817,0,0,3.94817,-1295.708644,-711.204157)">
        <path d="M386.382,242.758L386.332,242.707L366.414,222.398C365.669,221.653 365.296,220.795 365.296,219.826C365.296,219.341 365.398,218.865 365.603,218.399C365.808,217.933 366.088,217.523 366.442,217.169C366.797,216.815 367.197,216.535 367.645,216.33C368.092,216.125 368.558,216.022 369.043,216.022C370.087,216.022 371.001,216.414 371.784,217.197L391.584,237.444L411.328,217.253C412.111,216.47 413.043,216.078 414.125,216.078C415.094,216.078 415.952,216.451 416.698,217.197C417.443,217.943 417.816,218.8 417.816,219.77C417.816,220.739 417.425,221.653 416.642,222.51L396.786,242.758L417.257,263.677C418.003,264.422 418.375,265.336 418.375,266.417C418.375,267.461 417.993,268.328 417.229,269.018C416.464,269.708 415.616,270.053 414.684,270.053C413.64,270.053 412.782,269.699 412.111,268.99L391.65,248.139L391.584,248.071L388.391,244.81L391.621,248.04L388.391,244.81L386.382,242.758Z" style="fill:white;"/>
    </g>
    <g transform="matrix(1.397124,0,0,1.397124,15.854655,459.718528)">
        <path d="M52.516,-250.733C54.863,-253.501 57.309,-256.186 59.854,-258.789C73.505,-272.755 89.571,-283.781 108.052,-291.867C126.533,-299.952 146.38,-303.995 167.591,-303.995C189.012,-303.995 208.964,-299.952 227.445,-291.867C245.926,-283.781 261.992,-272.808 275.643,-258.947C289.294,-245.086 300.057,-228.757 307.933,-209.961C315.808,-191.165 319.746,-171.056 319.746,-149.635L319.746,-20.161C319.746,-14.071 317.646,-8.926 313.445,-4.725C309.245,-0.525 304.1,1.575 298.009,1.575C291.709,1.575 286.721,-0.525 283.046,-4.725C279.371,-8.926 277.533,-14.071 277.533,-20.161L277.218,-42.843C274.464,-39.964 271.617,-37.207 268.676,-34.572L239.019,-64.23C241.51,-66.381 243.9,-68.65 246.189,-71.037C255.954,-81.223 263.62,-93.089 269.185,-106.634C274.75,-120.18 277.533,-134.514 277.533,-149.635C277.533,-164.966 274.75,-179.457 269.185,-193.108C263.62,-206.758 255.954,-218.624 246.189,-228.705C236.423,-238.786 224.82,-246.766 211.379,-252.646C197.938,-258.527 183.342,-261.467 167.591,-261.467C152.05,-261.467 137.611,-258.527 124.276,-252.646C110.94,-246.766 99.336,-238.786 89.466,-228.705C86.995,-226.182 84.656,-223.547 82.449,-220.8L52.516,-250.733Z" style="fill:white;fill-rule:nonzero;"/>
    </g>
    <g transform="matrix(1.397124,0,0,1.397124,-515.204894,-788.039279)">
        <path d="M631.755,871.72C624.51,876.552 616.811,880.788 608.656,884.427C590.07,892.722 569.751,896.87 547.7,896.87C526.489,896.87 506.642,892.827 488.161,884.742C469.68,876.656 453.614,865.683 439.963,851.822C426.312,837.961 415.496,821.738 407.516,803.152C399.535,784.565 395.545,764.667 395.545,743.455C395.545,722.034 399.535,701.978 407.516,683.286C411.059,674.988 415.161,667.155 419.822,659.788L450.636,690.602C449.061,693.629 447.604,696.756 446.263,699.982C440.593,713.633 437.758,728.124 437.758,743.455C437.758,758.576 440.593,772.91 446.263,786.456C451.934,800.001 459.704,811.867 469.575,822.053C479.445,832.239 491.049,840.272 504.385,846.152C517.72,852.032 532.159,854.973 547.7,854.973C563.451,854.973 578.047,852.032 591.488,846.152C594.882,844.667 598.159,843.045 601.319,841.285L631.755,871.72Z" style="fill:white;"/>
    </g>
</svg>
